<mxfile host="Electron" modified="2024-06-19T21:49:50.088Z" agent="Mozilla/5.0 (Windows NT 10.0; Win64; x64) AppleWebKit/537.36 (KHTML, like Gecko) draw.io/24.5.3 Chrome/124.0.6367.207 Electron/30.0.6 Safari/537.36" etag="hRhfjWnSmTdtq6B2_UkL" version="24.5.3" type="device">
  <diagram name="Page-1" id="XOgep7xN6cvRrsEyFYAU">
    <mxGraphModel dx="3585" dy="2135" grid="1" gridSize="10" guides="1" tooltips="1" connect="1" arrows="1" fold="1" page="1" pageScale="1" pageWidth="2400" pageHeight="1200" math="0" shadow="0">
      <root>
        <mxCell id="0" />
        <mxCell id="1" parent="0" />
        <mxCell id="3FQ_g1fwvyoOvscGBFJc-11" value="" style="rounded=1;whiteSpace=wrap;html=1;fillColor=#dae8fc;strokeColor=#6c8ebf;" parent="1" vertex="1">
          <mxGeometry x="1220" y="70" width="2660" height="930" as="geometry" />
        </mxCell>
        <mxCell id="3FQ_g1fwvyoOvscGBFJc-19" value="" style="rounded=1;whiteSpace=wrap;html=1;fillColor=#d5e8d4;strokeColor=#82b366;" parent="1" vertex="1">
          <mxGeometry x="1680" y="1100" width="2200" height="410" as="geometry" />
        </mxCell>
        <mxCell id="MKBLukAdihqXzBTZwlin-36" style="edgeStyle=orthogonalEdgeStyle;rounded=0;orthogonalLoop=1;jettySize=auto;html=1;exitX=0.5;exitY=0;exitDx=0;exitDy=0;endArrow=none;endFill=0;" parent="1" source="MKBLukAdihqXzBTZwlin-8" edge="1">
          <mxGeometry relative="1" as="geometry">
            <mxPoint x="2050" y="330" as="targetPoint" />
            <Array as="points">
              <mxPoint x="1560" y="330" />
            </Array>
          </mxGeometry>
        </mxCell>
        <mxCell id="MKBLukAdihqXzBTZwlin-8" value="&lt;font style=&quot;font-size: 14px;&quot;&gt;Client&lt;/font&gt;" style="swimlane;whiteSpace=wrap;html=1;startSize=23;" parent="1" vertex="1">
          <mxGeometry x="1270" y="380" width="580" height="90" as="geometry" />
        </mxCell>
        <mxCell id="lL-_zeEpvykL3q5tdtBC-5" value="&lt;div&gt;+Client(firstName: String, lastName: String, email: String,&amp;nbsp;&lt;span style=&quot;background-color: initial;&quot;&gt;password: SecretKey, salt: byte[],&amp;nbsp;&lt;/span&gt;&lt;span style=&quot;background-color: initial;&quot;&gt;birthYear: String)&lt;/span&gt;&lt;/div&gt;+Client(firstName: String, lastName: String, email: String, birthYear: String)&lt;div&gt;+isValid(): boolean&lt;/div&gt;&lt;div&gt;+getBirthYear(): Object&lt;/div&gt;" style="rounded=0;whiteSpace=wrap;html=1;align=left;" parent="MKBLukAdihqXzBTZwlin-8" vertex="1">
          <mxGeometry y="23" width="580" height="67" as="geometry" />
        </mxCell>
        <mxCell id="MKBLukAdihqXzBTZwlin-23" style="edgeStyle=orthogonalEdgeStyle;rounded=0;orthogonalLoop=1;jettySize=auto;html=1;startArrow=none;startFill=0;endArrow=none;endFill=0;exitX=0.5;exitY=1;exitDx=0;exitDy=0;" parent="1" source="lL-_zeEpvykL3q5tdtBC-6" edge="1">
          <mxGeometry relative="1" as="geometry">
            <mxPoint x="1560" y="555" as="targetPoint" />
            <Array as="points">
              <mxPoint x="2185" y="555" />
            </Array>
          </mxGeometry>
        </mxCell>
        <mxCell id="MKBLukAdihqXzBTZwlin-9" value="&lt;font style=&quot;font-size: 14px;&quot;&gt;Landlord&lt;/font&gt;" style="swimlane;whiteSpace=wrap;html=1;startSize=23;" parent="1" vertex="1">
          <mxGeometry x="1885" y="380" width="600" height="90" as="geometry" />
        </mxCell>
        <mxCell id="lL-_zeEpvykL3q5tdtBC-6" value="&lt;div&gt;+Landlord(firstName: String, lastName: String, email: String, password: SecretKey, salt: byte[], address: String)&lt;br&gt;&lt;/div&gt;+Landlord(firstName: String, lastName: String, email: String, address: String)&lt;div&gt;+isValid(): boolean&lt;/div&gt;&lt;div&gt;+getAddress(): Object&lt;/div&gt;" style="rounded=0;whiteSpace=wrap;html=1;align=left;" parent="MKBLukAdihqXzBTZwlin-9" vertex="1">
          <mxGeometry y="23" width="600" height="67" as="geometry" />
        </mxCell>
        <mxCell id="MKBLukAdihqXzBTZwlin-37" style="edgeStyle=orthogonalEdgeStyle;rounded=0;orthogonalLoop=1;jettySize=auto;html=1;endArrow=none;endFill=0;exitX=0.5;exitY=0;exitDx=0;exitDy=0;" parent="1" source="MKBLukAdihqXzBTZwlin-10" edge="1">
          <mxGeometry relative="1" as="geometry">
            <mxPoint x="2050" y="330" as="targetPoint" />
            <Array as="points">
              <mxPoint x="3280" y="330" />
              <mxPoint x="2050" y="330" />
            </Array>
          </mxGeometry>
        </mxCell>
        <mxCell id="1DpP1hd2IO12ISv2Qp63-34" style="edgeStyle=orthogonalEdgeStyle;rounded=0;orthogonalLoop=1;jettySize=auto;html=1;endArrow=none;endFill=0;" parent="1" source="MKBLukAdihqXzBTZwlin-10" edge="1">
          <mxGeometry relative="1" as="geometry">
            <mxPoint x="2185" y="550" as="targetPoint" />
            <Array as="points">
              <mxPoint x="3565" y="930" />
              <mxPoint x="2185" y="930" />
            </Array>
          </mxGeometry>
        </mxCell>
        <mxCell id="MKBLukAdihqXzBTZwlin-10" value="&lt;font style=&quot;font-size: 14px;&quot;&gt;PropertyMgr&lt;/font&gt;" style="swimlane;whiteSpace=wrap;html=1;startSize=23;" parent="1" vertex="1">
          <mxGeometry x="3300" y="360" width="530" height="150" as="geometry" />
        </mxCell>
        <mxCell id="3FQ_g1fwvyoOvscGBFJc-15" value="&lt;div&gt;+PropertyMgr(firstName: String, lastName: String, email: String, password: SecretKey, salt: byte[])&lt;br&gt;&lt;/div&gt;+PropertyMgr(firstName: String, lastName: String, email: String)&lt;div&gt;+isValid(): boolean&lt;/div&gt;&lt;div&gt;+getInvitations(): List&amp;lt;String&amp;gt;&lt;/div&gt;&lt;div&gt;+addInvitation(invite: Invite): void&lt;/div&gt;&lt;div&gt;+removeInvitation(invite: Invite): void&lt;/div&gt;&lt;div&gt;+clearInvitations(): void&lt;/div&gt;" style="rounded=0;whiteSpace=wrap;html=1;align=left;" parent="MKBLukAdihqXzBTZwlin-10" vertex="1">
          <mxGeometry y="40" width="530" height="110" as="geometry" />
        </mxCell>
        <mxCell id="3FQ_g1fwvyoOvscGBFJc-16" value="-invitations: ArrayList&amp;lt;Invitation&amp;gt;" style="rounded=0;whiteSpace=wrap;html=1;align=left;" parent="MKBLukAdihqXzBTZwlin-10" vertex="1">
          <mxGeometry y="20" width="530" height="20" as="geometry" />
        </mxCell>
        <mxCell id="MKBLukAdihqXzBTZwlin-30" value="0..*" style="text;html=1;align=center;verticalAlign=middle;resizable=0;points=[];autosize=1;strokeColor=none;fillColor=none;" parent="1" vertex="1">
          <mxGeometry x="1560" y="470" width="40" height="30" as="geometry" />
        </mxCell>
        <mxCell id="MKBLukAdihqXzBTZwlin-31" value="0..*" style="text;html=1;align=center;verticalAlign=middle;resizable=0;points=[];autosize=1;strokeColor=none;fillColor=none;" parent="1" vertex="1">
          <mxGeometry x="2185" y="470" width="40" height="30" as="geometry" />
        </mxCell>
        <mxCell id="MKBLukAdihqXzBTZwlin-32" value="0..*" style="text;html=1;align=center;verticalAlign=middle;resizable=0;points=[];autosize=1;strokeColor=none;fillColor=none;" parent="1" vertex="1">
          <mxGeometry x="3565" y="510" width="40" height="30" as="geometry" />
        </mxCell>
        <mxCell id="_sGQmXk6p929G_CMf_oQ-1" value="&lt;span style=&quot;font-size: 14px;&quot;&gt;Property&lt;/span&gt;" style="swimlane;whiteSpace=wrap;html=1;startSize=23;" parent="1" vertex="1">
          <mxGeometry x="2362" y="1145" width="1475" height="330" as="geometry" />
        </mxCell>
        <mxCell id="_sGQmXk6p929G_CMf_oQ-2" value="#propertyData: Map&amp;lt;String, Object&amp;gt;" style="rounded=0;whiteSpace=wrap;html=1;align=left;" parent="_sGQmXk6p929G_CMf_oQ-1" vertex="1">
          <mxGeometry y="23" width="1475" height="17" as="geometry" />
        </mxCell>
        <mxCell id="_sGQmXk6p929G_CMf_oQ-3" value="+Property(address: String, type: String, floor: String, numRoom: String, numBathroom: String, numFloor: String, area: String, laundry: String, numParkingSpot: String, rent: String, utilities: String, landlord: String, manager: String)&lt;div&gt;+Property(address: String, type: String, floor: String, numRoom: String, numBathroom: String, numFloor: String, area: String, laundry: String, numParkingSpot: String, rent: String, utilities: String, landlord: String, manager: String, client: String)&lt;/div&gt;&lt;div&gt;+Property(address: String, type: String, floor: String, numRoom: String, numBathroom: String, numFloor: String, area: String, laundry: String, numParkingSpot: String, rent: String,&amp;nbsp;heating: boolean, hydro: boolean, water: boolean, landlord: String, manager: String, client: String)&lt;/div&gt;&lt;div&gt;+isValid(): boolean&lt;/div&gt;&lt;div&gt;+getAddress(): String&lt;/div&gt;&lt;div&gt;+getType(): String&lt;br&gt;&lt;/div&gt;&lt;div&gt;+getFloor(): String&lt;br&gt;&lt;/div&gt;&lt;div&gt;+getNumRoom(): String&lt;br&gt;&lt;/div&gt;&lt;div&gt;+getNumBathroom(): String&lt;br&gt;&lt;/div&gt;&lt;div&gt;+getNumFloor(): String&lt;br&gt;&lt;/div&gt;&lt;div&gt;+getArea(): String&lt;br&gt;&lt;/div&gt;&lt;div&gt;+getLaundry(): String&lt;br&gt;&lt;/div&gt;&lt;div&gt;+getNumParkingSpot(): String&lt;br&gt;&lt;/div&gt;&lt;div&gt;+getRent(): String&lt;br&gt;&lt;/div&gt;&lt;div&gt;+getHeating(): Boolean&lt;br&gt;&lt;/div&gt;&lt;div&gt;+getHydro(): Boolean&lt;br&gt;&lt;/div&gt;&lt;div&gt;+getWater(): Boolean&lt;/div&gt;&lt;div&gt;+getLandlord(): String&lt;br&gt;&lt;/div&gt;&lt;div&gt;+getManager(): String&lt;br&gt;&lt;/div&gt;&lt;div&gt;+getClient(): String&lt;br&gt;&lt;/div&gt;" style="rounded=0;whiteSpace=wrap;html=1;align=left;" parent="_sGQmXk6p929G_CMf_oQ-1" vertex="1">
          <mxGeometry y="40" width="1475" height="290" as="geometry" />
        </mxCell>
        <mxCell id="3FQ_g1fwvyoOvscGBFJc-13" value="&lt;b style=&quot;&quot;&gt;&lt;font style=&quot;font-size: 32px;&quot;&gt;Users&lt;/font&gt;&lt;/b&gt;" style="text;html=1;align=center;verticalAlign=middle;whiteSpace=wrap;rounded=0;" parent="1" vertex="1">
          <mxGeometry x="1260" y="110" width="140" height="80" as="geometry" />
        </mxCell>
        <mxCell id="3FQ_g1fwvyoOvscGBFJc-18" value="&lt;b style=&quot;&quot;&gt;&lt;font style=&quot;font-size: 32px;&quot;&gt;Properties&lt;/font&gt;&lt;/b&gt;" style="text;html=1;align=center;verticalAlign=middle;whiteSpace=wrap;rounded=0;" parent="1" vertex="1">
          <mxGeometry x="1696" y="1110" width="202.5" height="80" as="geometry" />
        </mxCell>
        <mxCell id="3FQ_g1fwvyoOvscGBFJc-35" value="&lt;i&gt;User&lt;/i&gt;" style="swimlane;fontStyle=1;align=center;verticalAlign=top;childLayout=stackLayout;horizontal=1;startSize=26;horizontalStack=0;resizeParent=1;resizeParentMax=0;resizeLast=0;collapsible=1;marginBottom=0;whiteSpace=wrap;html=1;fillStyle=auto;gradientColor=none;" parent="1" vertex="1">
          <mxGeometry x="1940" y="100" width="490" height="210" as="geometry" />
        </mxCell>
        <mxCell id="3FQ_g1fwvyoOvscGBFJc-36" value="#userData: Map&amp;lt;String, Object&amp;gt;" style="text;strokeColor=none;fillColor=default;align=left;verticalAlign=top;spacingLeft=4;spacingRight=4;overflow=hidden;rotatable=0;points=[[0,0.5],[1,0.5]];portConstraint=eastwest;whiteSpace=wrap;html=1;" parent="3FQ_g1fwvyoOvscGBFJc-35" vertex="1">
          <mxGeometry y="26" width="490" height="26" as="geometry" />
        </mxCell>
        <mxCell id="3FQ_g1fwvyoOvscGBFJc-37" value="" style="line;strokeWidth=1;align=left;verticalAlign=middle;spacingTop=-1;spacingLeft=3;spacingRight=3;rotatable=0;labelPosition=right;points=[];portConstraint=eastwest;" parent="3FQ_g1fwvyoOvscGBFJc-35" vertex="1">
          <mxGeometry y="52" width="490" height="1" as="geometry" />
        </mxCell>
        <mxCell id="3FQ_g1fwvyoOvscGBFJc-38" value="+User(firstName: String, lastName: String, email: String, password: SecretKey, salt: byte[])&lt;div&gt;+User(firstName: String, lastName: String, email: String)&lt;i style=&quot;background-color: initial;&quot;&gt;&lt;br&gt;&lt;/i&gt;&lt;/div&gt;&lt;div&gt;&lt;i style=&quot;background-color: initial;&quot;&gt;+isValid(): boolean&lt;/i&gt;&lt;br&gt;&lt;/div&gt;&lt;div&gt;+getFirstName(): Object&lt;/div&gt;&lt;div&gt;+getLastName(): Object&lt;br&gt;&lt;/div&gt;&lt;div&gt;+getEmail(): Object&lt;/div&gt;&lt;div&gt;+getRole(): Object&lt;/div&gt;&lt;div&gt;+getProperties(): Object&lt;/div&gt;&lt;div&gt;#getPassword(): Object&lt;/div&gt;&lt;div&gt;+setPassword(SecretKey pass, byte[] randomSalt): void&lt;/div&gt;" style="text;strokeColor=none;fillColor=default;align=left;verticalAlign=top;spacingLeft=4;spacingRight=4;overflow=hidden;rotatable=0;points=[[0,0.5],[1,0.5]];portConstraint=eastwest;whiteSpace=wrap;html=1;" parent="3FQ_g1fwvyoOvscGBFJc-35" vertex="1">
          <mxGeometry y="53" width="490" height="157" as="geometry" />
        </mxCell>
        <mxCell id="3FQ_g1fwvyoOvscGBFJc-46" style="edgeStyle=orthogonalEdgeStyle;rounded=0;orthogonalLoop=1;jettySize=auto;html=1;entryX=0.501;entryY=0.996;entryDx=0;entryDy=0;entryPerimeter=0;endArrow=block;endFill=0;" parent="1" source="MKBLukAdihqXzBTZwlin-9" target="3FQ_g1fwvyoOvscGBFJc-38" edge="1">
          <mxGeometry relative="1" as="geometry" />
        </mxCell>
        <mxCell id="1DpP1hd2IO12ISv2Qp63-8" value="&lt;font size=&quot;1&quot; style=&quot;&quot;&gt;&lt;i style=&quot;font-size: 24px;&quot;&gt;&lt;b&gt;&amp;lt;&amp;lt;Activities&amp;gt;&amp;gt;&lt;/b&gt;&lt;/i&gt;&lt;/font&gt;" style="text;html=1;align=center;verticalAlign=middle;whiteSpace=wrap;rounded=0;" parent="1" vertex="1">
          <mxGeometry x="740" y="920" width="210" height="30" as="geometry" />
        </mxCell>
        <mxCell id="1DpP1hd2IO12ISv2Qp63-14" value="0..*" style="text;html=1;align=center;verticalAlign=middle;resizable=0;points=[];autosize=1;strokeColor=none;fillColor=none;" parent="1" vertex="1">
          <mxGeometry x="2322" y="1280" width="40" height="30" as="geometry" />
        </mxCell>
        <mxCell id="1DpP1hd2IO12ISv2Qp63-25" value="&lt;font style=&quot;font-size: 16px;&quot;&gt;&amp;lt;&amp;lt;instantiate&amp;gt;&amp;gt;&lt;/font&gt;" style="text;html=1;align=center;verticalAlign=middle;resizable=0;points=[];autosize=1;strokeColor=none;fillColor=none;" parent="1" vertex="1">
          <mxGeometry x="970" y="935" width="130" height="30" as="geometry" />
        </mxCell>
        <mxCell id="1DpP1hd2IO12ISv2Qp63-26" value="" style="group" parent="1" vertex="1" connectable="0">
          <mxGeometry x="1280" y="620" width="570" height="320" as="geometry" />
        </mxCell>
        <mxCell id="3FQ_g1fwvyoOvscGBFJc-58" value="" style="rounded=1;whiteSpace=wrap;html=1;fillColor=#ffe6cc;strokeColor=#d79b00;" parent="1DpP1hd2IO12ISv2Qp63-26" vertex="1">
          <mxGeometry width="570" height="320" as="geometry" />
        </mxCell>
        <mxCell id="MKBLukAdihqXzBTZwlin-6" value="&lt;font style=&quot;font-size: 14px;&quot;&gt;UserCreator&lt;/font&gt;" style="swimlane;whiteSpace=wrap;html=1;startSize=23;" parent="1DpP1hd2IO12ISv2Qp63-26" vertex="1">
          <mxGeometry x="100" y="30" width="360" height="110" as="geometry" />
        </mxCell>
        <mxCell id="lL-_zeEpvykL3q5tdtBC-14" value="~context: Context&lt;div&gt;~firestore: FirebaseFirestore&lt;/div&gt;" style="rounded=0;whiteSpace=wrap;html=1;align=left;" parent="MKBLukAdihqXzBTZwlin-6" vertex="1">
          <mxGeometry y="22.5" width="360" height="38.5" as="geometry" />
        </mxCell>
        <mxCell id="lL-_zeEpvykL3q5tdtBC-15" value="+UserCreator(activeContext: Context, firestore: FirebaseFirestore)&lt;div&gt;#add(user: User, pass: String): boolean&lt;/div&gt;&lt;div&gt;+doesExist(email: String): boolean&lt;/div&gt;" style="rounded=0;whiteSpace=wrap;html=1;align=left;" parent="MKBLukAdihqXzBTZwlin-6" vertex="1">
          <mxGeometry y="61" width="360" height="49" as="geometry" />
        </mxCell>
        <mxCell id="_sGQmXk6p929G_CMf_oQ-4" value="&lt;font style=&quot;font-size: 14px;&quot;&gt;Hashing&lt;/font&gt;" style="swimlane;whiteSpace=wrap;html=1;startSize=23;" parent="1DpP1hd2IO12ISv2Qp63-26" vertex="1">
          <mxGeometry x="45" y="200" width="470" height="100" as="geometry" />
        </mxCell>
        <mxCell id="_sGQmXk6p929G_CMf_oQ-5" value="~context: Context" style="rounded=0;whiteSpace=wrap;html=1;align=left;" parent="_sGQmXk6p929G_CMf_oQ-4" vertex="1">
          <mxGeometry y="23" width="470" height="20" as="geometry" />
        </mxCell>
        <mxCell id="_sGQmXk6p929G_CMf_oQ-6" value="&lt;div&gt;+Hashing(context: Context): Hashing&lt;/div&gt;+hashPassword(password: char[], salt: byte[]): SecretKey&lt;div&gt;&lt;div&gt;+generateSalt(): byte[]&lt;/div&gt;&lt;div&gt;+verifyPassword(salt: byte[], passwordPlainText: String, password: SecretKey): boolean&lt;/div&gt;&lt;/div&gt;" style="rounded=0;whiteSpace=wrap;html=1;align=left;" parent="_sGQmXk6p929G_CMf_oQ-4" vertex="1">
          <mxGeometry y="43" width="470" height="57" as="geometry" />
        </mxCell>
        <mxCell id="3FQ_g1fwvyoOvscGBFJc-59" value="&lt;span style=&quot;font-size: 16px;&quot;&gt;&lt;b&gt;User Factory and Helper&lt;/b&gt;&lt;/span&gt;" style="text;html=1;align=center;verticalAlign=middle;whiteSpace=wrap;rounded=0;" parent="1DpP1hd2IO12ISv2Qp63-26" vertex="1">
          <mxGeometry x="18" y="141" width="100" height="55" as="geometry" />
        </mxCell>
        <mxCell id="3FQ_g1fwvyoOvscGBFJc-64" value="creates" style="text;html=1;align=center;verticalAlign=middle;resizable=0;points=[];autosize=1;strokeColor=none;fillColor=none;" parent="1DpP1hd2IO12ISv2Qp63-26" vertex="1">
          <mxGeometry x="280" width="60" height="30" as="geometry" />
        </mxCell>
        <mxCell id="1DpP1hd2IO12ISv2Qp63-2" value="&amp;lt;&amp;lt;instantiate&amp;gt;&amp;gt;" style="text;html=1;align=center;verticalAlign=middle;resizable=0;points=[];autosize=1;strokeColor=none;fillColor=none;" parent="1DpP1hd2IO12ISv2Qp63-26" vertex="1">
          <mxGeometry x="280" y="154" width="110" height="30" as="geometry" />
        </mxCell>
        <mxCell id="1DpP1hd2IO12ISv2Qp63-1" style="edgeStyle=orthogonalEdgeStyle;rounded=0;orthogonalLoop=1;jettySize=auto;html=1;entryX=0.5;entryY=0;entryDx=0;entryDy=0;dashed=1;endArrow=open;endFill=0;" parent="1DpP1hd2IO12ISv2Qp63-26" source="lL-_zeEpvykL3q5tdtBC-15" target="_sGQmXk6p929G_CMf_oQ-4" edge="1">
          <mxGeometry relative="1" as="geometry" />
        </mxCell>
        <mxCell id="1DpP1hd2IO12ISv2Qp63-30" value="" style="group" parent="1" vertex="1" connectable="0">
          <mxGeometry x="2560" y="360" width="660" height="450" as="geometry" />
        </mxCell>
        <mxCell id="1DpP1hd2IO12ISv2Qp63-19" value="" style="rounded=1;whiteSpace=wrap;html=1;fillColor=#e1d5e7;strokeColor=#9673a6;" parent="1DpP1hd2IO12ISv2Qp63-30" vertex="1">
          <mxGeometry x="-30" width="685" height="450" as="geometry" />
        </mxCell>
        <mxCell id="1DpP1hd2IO12ISv2Qp63-27" style="edgeStyle=orthogonalEdgeStyle;rounded=0;orthogonalLoop=1;jettySize=auto;html=1;entryX=0.5;entryY=0;entryDx=0;entryDy=0;endArrow=open;endFill=0;startArrow=diamondThin;startFill=1;strokeWidth=2;" parent="1DpP1hd2IO12ISv2Qp63-30" source="3FQ_g1fwvyoOvscGBFJc-47" target="1DpP1hd2IO12ISv2Qp63-21" edge="1">
          <mxGeometry relative="1" as="geometry" />
        </mxCell>
        <mxCell id="3FQ_g1fwvyoOvscGBFJc-47" value="InvitationHandler" style="swimlane;fontStyle=1;align=center;verticalAlign=top;childLayout=stackLayout;horizontal=1;startSize=26;horizontalStack=0;resizeParent=1;resizeParentMax=0;resizeLast=0;collapsible=1;marginBottom=0;whiteSpace=wrap;html=1;fillStyle=auto;gradientColor=none;" parent="1DpP1hd2IO12ISv2Qp63-30" vertex="1">
          <mxGeometry x="25" y="46" width="560" height="150" as="geometry" />
        </mxCell>
        <mxCell id="3FQ_g1fwvyoOvscGBFJc-48" value="&lt;div&gt;-invite: Invitation&lt;/div&gt;&lt;div&gt;-manager: PropertyMgr&lt;/div&gt;&lt;div&gt;-property: Property&lt;/div&gt;&lt;div&gt;-landlord: Landlord&lt;/div&gt;&lt;div&gt;-commission: double&lt;/div&gt;&lt;div&gt;&lt;br&gt;&lt;/div&gt;" style="text;strokeColor=none;fillColor=default;align=left;verticalAlign=top;spacingLeft=4;spacingRight=4;overflow=hidden;rotatable=0;points=[[0,0.5],[1,0.5]];portConstraint=eastwest;whiteSpace=wrap;html=1;" parent="3FQ_g1fwvyoOvscGBFJc-47" vertex="1">
          <mxGeometry y="26" width="560" height="84" as="geometry" />
        </mxCell>
        <mxCell id="3FQ_g1fwvyoOvscGBFJc-49" value="" style="line;strokeWidth=1;align=left;verticalAlign=middle;spacingTop=-1;spacingLeft=3;spacingRight=3;rotatable=0;labelPosition=right;points=[];portConstraint=eastwest;" parent="3FQ_g1fwvyoOvscGBFJc-47" vertex="1">
          <mxGeometry y="110" width="560" height="1" as="geometry" />
        </mxCell>
        <mxCell id="3FQ_g1fwvyoOvscGBFJc-50" value="+InvitationHandler(property: Property, manager: PropertyMgr, landlord: Landlord, commission: double)&lt;div&gt;+sendInviteToManager(): void&lt;/div&gt;" style="text;strokeColor=none;fillColor=default;align=left;verticalAlign=top;spacingLeft=4;spacingRight=4;overflow=hidden;rotatable=0;points=[[0,0.5],[1,0.5]];portConstraint=eastwest;whiteSpace=wrap;html=1;" parent="3FQ_g1fwvyoOvscGBFJc-47" vertex="1">
          <mxGeometry y="111" width="560" height="39" as="geometry" />
        </mxCell>
        <mxCell id="1DpP1hd2IO12ISv2Qp63-20" value="&lt;span style=&quot;font-size: 16px;&quot;&gt;&lt;b&gt;Invitations&lt;/b&gt;&lt;/span&gt;" style="text;html=1;align=center;verticalAlign=middle;whiteSpace=wrap;rounded=0;" parent="1DpP1hd2IO12ISv2Qp63-30" vertex="1">
          <mxGeometry x="255" y="8" width="100" height="31" as="geometry" />
        </mxCell>
        <mxCell id="1DpP1hd2IO12ISv2Qp63-21" value="Invitation" style="swimlane;fontStyle=1;align=center;verticalAlign=top;childLayout=stackLayout;horizontal=1;startSize=26;horizontalStack=0;resizeParent=1;resizeParentMax=0;resizeLast=0;collapsible=1;marginBottom=0;whiteSpace=wrap;html=1;fillStyle=auto;gradientColor=none;" parent="1DpP1hd2IO12ISv2Qp63-30" vertex="1">
          <mxGeometry x="50" y="280" width="510" height="150" as="geometry" />
        </mxCell>
        <mxCell id="1DpP1hd2IO12ISv2Qp63-22" value="&lt;div&gt;-invitationData: HashMap&amp;lt;String, Object&amp;gt;&lt;/div&gt;" style="text;strokeColor=none;fillColor=default;align=left;verticalAlign=top;spacingLeft=4;spacingRight=4;overflow=hidden;rotatable=0;points=[[0,0.5],[1,0.5]];portConstraint=eastwest;whiteSpace=wrap;html=1;" parent="1DpP1hd2IO12ISv2Qp63-21" vertex="1">
          <mxGeometry y="26" width="510" height="24" as="geometry" />
        </mxCell>
        <mxCell id="1DpP1hd2IO12ISv2Qp63-23" value="" style="line;strokeWidth=1;align=left;verticalAlign=middle;spacingTop=-1;spacingLeft=3;spacingRight=3;rotatable=0;labelPosition=right;points=[];portConstraint=eastwest;" parent="1DpP1hd2IO12ISv2Qp63-21" vertex="1">
          <mxGeometry y="50" width="510" height="1" as="geometry" />
        </mxCell>
        <mxCell id="1DpP1hd2IO12ISv2Qp63-24" value="+Invitation&lt;span style=&quot;background-color: initial;&quot;&gt;(property: Property, manager: PropertyMgr, landlord: Landlord, commission: double)&lt;/span&gt;&lt;div&gt;&lt;div&gt;+getInvitationData(): HashMap&amp;lt;String, Object&amp;gt;&lt;/div&gt;&lt;/div&gt;&lt;div&gt;+getLandlordEmail(): String&lt;/div&gt;&lt;div&gt;+getManagerEmail(): String&lt;/div&gt;&lt;div&gt;+getPropertyAddress(): String&lt;/div&gt;&lt;div&gt;+getCommission(): Double&lt;/div&gt;" style="text;strokeColor=none;fillColor=default;align=left;verticalAlign=top;spacingLeft=4;spacingRight=4;overflow=hidden;rotatable=0;points=[[0,0.5],[1,0.5]];portConstraint=eastwest;whiteSpace=wrap;html=1;" parent="1DpP1hd2IO12ISv2Qp63-21" vertex="1">
          <mxGeometry y="51" width="510" height="99" as="geometry" />
        </mxCell>
        <mxCell id="1DpP1hd2IO12ISv2Qp63-28" value="creates" style="text;html=1;align=center;verticalAlign=middle;resizable=0;points=[];autosize=1;strokeColor=none;fillColor=none;" parent="1DpP1hd2IO12ISv2Qp63-30" vertex="1">
          <mxGeometry x="305" y="196" width="60" height="30" as="geometry" />
        </mxCell>
        <mxCell id="1DpP1hd2IO12ISv2Qp63-29" value="1" style="text;html=1;align=center;verticalAlign=middle;resizable=0;points=[];autosize=1;strokeColor=none;fillColor=none;" parent="1DpP1hd2IO12ISv2Qp63-30" vertex="1">
          <mxGeometry x="305" y="250" width="30" height="30" as="geometry" />
        </mxCell>
        <mxCell id="WMpQ6_HWVoWgoLdHVGew-3" value="0..*" style="text;html=1;align=center;verticalAlign=middle;resizable=0;points=[];autosize=1;strokeColor=none;fillColor=none;" parent="1DpP1hd2IO12ISv2Qp63-30" vertex="1">
          <mxGeometry x="560" y="355" width="40" height="30" as="geometry" />
        </mxCell>
        <mxCell id="WMpQ6_HWVoWgoLdHVGew-7" value="&amp;lt;&amp;lt;flow&amp;gt;&amp;gt;" style="text;html=1;align=center;verticalAlign=middle;resizable=0;points=[];autosize=1;strokeColor=none;fillColor=none;" parent="1DpP1hd2IO12ISv2Qp63-30" vertex="1">
          <mxGeometry x="587" y="120" width="70" height="30" as="geometry" />
        </mxCell>
        <mxCell id="1DpP1hd2IO12ISv2Qp63-31" style="edgeStyle=orthogonalEdgeStyle;rounded=0;orthogonalLoop=1;jettySize=auto;html=1;entryX=1;entryY=0.5;entryDx=0;entryDy=0;dashed=1;endArrow=open;endFill=0;exitX=0;exitY=0.5;exitDx=0;exitDy=0;" parent="1" source="3FQ_g1fwvyoOvscGBFJc-48" target="MKBLukAdihqXzBTZwlin-9" edge="1">
          <mxGeometry relative="1" as="geometry">
            <mxPoint x="2510" y="500" as="sourcePoint" />
            <Array as="points">
              <mxPoint x="2500" y="474" />
              <mxPoint x="2500" y="425" />
            </Array>
          </mxGeometry>
        </mxCell>
        <mxCell id="1DpP1hd2IO12ISv2Qp63-32" style="edgeStyle=orthogonalEdgeStyle;rounded=0;orthogonalLoop=1;jettySize=auto;html=1;exitX=1;exitY=0.5;exitDx=0;exitDy=0;entryX=0;entryY=0.5;entryDx=0;entryDy=0;endArrow=open;endFill=0;dashed=1;" parent="1" source="3FQ_g1fwvyoOvscGBFJc-47" target="MKBLukAdihqXzBTZwlin-10" edge="1">
          <mxGeometry relative="1" as="geometry">
            <Array as="points">
              <mxPoint x="3230" y="481" />
              <mxPoint x="3230" y="435" />
            </Array>
          </mxGeometry>
        </mxCell>
        <mxCell id="1DpP1hd2IO12ISv2Qp63-33" style="edgeStyle=orthogonalEdgeStyle;rounded=0;orthogonalLoop=1;jettySize=auto;html=1;entryX=0.5;entryY=0;entryDx=0;entryDy=0;endArrow=none;endFill=0;" parent="1" source="MKBLukAdihqXzBTZwlin-8" target="MKBLukAdihqXzBTZwlin-6" edge="1">
          <mxGeometry relative="1" as="geometry" />
        </mxCell>
        <mxCell id="1DpP1hd2IO12ISv2Qp63-35" style="edgeStyle=orthogonalEdgeStyle;rounded=0;orthogonalLoop=1;jettySize=auto;html=1;dashed=1;endArrow=none;endFill=0;jumpStyle=arc;jumpSize=15;entryX=-0.005;entryY=0.798;entryDx=0;entryDy=0;entryPerimeter=0;startArrow=open;startFill=0;" parent="1" target="3FQ_g1fwvyoOvscGBFJc-48" edge="1">
          <mxGeometry relative="1" as="geometry">
            <mxPoint x="2500" y="1145" as="sourcePoint" />
            <mxPoint x="3120" y="611" as="targetPoint" />
            <Array as="points">
              <mxPoint x="2500" y="1145" />
              <mxPoint x="2500" y="499" />
            </Array>
          </mxGeometry>
        </mxCell>
        <mxCell id="1DpP1hd2IO12ISv2Qp63-36" style="edgeStyle=orthogonalEdgeStyle;rounded=0;orthogonalLoop=1;jettySize=auto;html=1;exitX=1;exitY=0.5;exitDx=0;exitDy=0;entryX=0;entryY=1;entryDx=0;entryDy=0;dashed=1;endArrow=open;endFill=0;" parent="1" source="1DpP1hd2IO12ISv2Qp63-8" target="lL-_zeEpvykL3q5tdtBC-14" edge="1">
          <mxGeometry relative="1" as="geometry">
            <Array as="points">
              <mxPoint x="1120" y="935" />
              <mxPoint x="1120" y="711" />
            </Array>
          </mxGeometry>
        </mxCell>
        <mxCell id="WMpQ6_HWVoWgoLdHVGew-1" style="edgeStyle=orthogonalEdgeStyle;rounded=0;orthogonalLoop=1;jettySize=auto;html=1;exitX=0.25;exitY=1;exitDx=0;exitDy=0;entryX=1;entryY=0.5;entryDx=0;entryDy=0;startArrow=diamondThin;startFill=0;strokeWidth=2;endArrow=open;endFill=0;" parent="1" source="3FQ_g1fwvyoOvscGBFJc-15" target="1DpP1hd2IO12ISv2Qp63-21" edge="1">
          <mxGeometry relative="1" as="geometry" />
        </mxCell>
        <mxCell id="WMpQ6_HWVoWgoLdHVGew-2" value="aggregates" style="text;html=1;align=center;verticalAlign=middle;resizable=0;points=[];autosize=1;strokeColor=none;fillColor=none;" parent="1" vertex="1">
          <mxGeometry x="3350" y="510" width="80" height="30" as="geometry" />
        </mxCell>
        <mxCell id="WMpQ6_HWVoWgoLdHVGew-4" value="" style="group" parent="1" vertex="1" connectable="0">
          <mxGeometry x="1750" y="1240" width="551" height="160" as="geometry" />
        </mxCell>
        <mxCell id="1DpP1hd2IO12ISv2Qp63-3" value="" style="rounded=1;whiteSpace=wrap;html=1;fillColor=#ffe6cc;strokeColor=#d79b00;" parent="WMpQ6_HWVoWgoLdHVGew-4" vertex="1">
          <mxGeometry y="-20" width="551" height="180" as="geometry" />
        </mxCell>
        <mxCell id="1DpP1hd2IO12ISv2Qp63-4" value="&lt;span style=&quot;font-size: 16px;&quot;&gt;&lt;b&gt;Property Factory&lt;/b&gt;&lt;/span&gt;" style="text;html=1;align=center;verticalAlign=middle;whiteSpace=wrap;rounded=0;" parent="WMpQ6_HWVoWgoLdHVGew-4" vertex="1">
          <mxGeometry x="-5" y="-16" width="100" height="55" as="geometry" />
        </mxCell>
        <mxCell id="1DpP1hd2IO12ISv2Qp63-5" value="&lt;font style=&quot;font-size: 14px;&quot;&gt;PropertyCreator&lt;/font&gt;" style="swimlane;whiteSpace=wrap;html=1;startSize=23;" parent="WMpQ6_HWVoWgoLdHVGew-4" vertex="1">
          <mxGeometry x="85.5" y="15" width="380" height="110" as="geometry" />
        </mxCell>
        <mxCell id="1DpP1hd2IO12ISv2Qp63-6" value="~context: Context&lt;div&gt;~firestore: FirebaseFirestore&lt;/div&gt;" style="rounded=0;whiteSpace=wrap;html=1;align=left;" parent="1DpP1hd2IO12ISv2Qp63-5" vertex="1">
          <mxGeometry y="22.5" width="380" height="38.5" as="geometry" />
        </mxCell>
        <mxCell id="1DpP1hd2IO12ISv2Qp63-7" value="+PropertyCreator(activeContext: Context, firestore: FirebaseFirestore)&lt;div&gt;+add(property: Property): boolean&lt;/div&gt;&lt;div&gt;+doesExist(address: String): boolean&lt;/div&gt;" style="rounded=0;whiteSpace=wrap;html=1;align=left;" parent="1DpP1hd2IO12ISv2Qp63-5" vertex="1">
          <mxGeometry y="61" width="380" height="49" as="geometry" />
        </mxCell>
        <mxCell id="1DpP1hd2IO12ISv2Qp63-16" value="creates" style="text;html=1;align=center;verticalAlign=middle;resizable=0;points=[];autosize=1;strokeColor=none;fillColor=none;" parent="WMpQ6_HWVoWgoLdHVGew-4" vertex="1">
          <mxGeometry x="465.5" y="40" width="60" height="30" as="geometry" />
        </mxCell>
        <mxCell id="WMpQ6_HWVoWgoLdHVGew-5" value="invitation" style="text;html=1;align=center;verticalAlign=middle;resizable=0;points=[];autosize=1;strokeColor=none;fillColor=none;" parent="1" vertex="1">
          <mxGeometry x="3229" y="405" width="70" height="30" as="geometry" />
        </mxCell>
        <mxCell id="1DpP1hd2IO12ISv2Qp63-37" style="edgeStyle=orthogonalEdgeStyle;rounded=0;orthogonalLoop=1;jettySize=auto;html=1;dashed=1;endArrow=none;endFill=0;exitX=0;exitY=0;exitDx=0;exitDy=0;startArrow=open;startFill=0;" parent="1" source="1DpP1hd2IO12ISv2Qp63-7" edge="1">
          <mxGeometry relative="1" as="geometry">
            <mxPoint x="1120" y="930" as="targetPoint" />
            <Array as="points">
              <mxPoint x="1120" y="1316" />
            </Array>
          </mxGeometry>
        </mxCell>
        <mxCell id="WMpQ6_HWVoWgoLdHVGew-9" style="edgeStyle=orthogonalEdgeStyle;rounded=0;orthogonalLoop=1;jettySize=auto;html=1;entryX=0.001;entryY=0.432;entryDx=0;entryDy=0;entryPerimeter=0;endArrow=none;endFill=0;" parent="1" source="1DpP1hd2IO12ISv2Qp63-5" target="_sGQmXk6p929G_CMf_oQ-3" edge="1">
          <mxGeometry relative="1" as="geometry" />
        </mxCell>
      </root>
    </mxGraphModel>
  </diagram>
</mxfile>
